<svg xmlns="http://www.w3.org/2000/svg" xmlns:xlink="http://www.w3.org/1999/xlink" width="1080" zoomAndPan="magnify" viewBox="0 0 810 809.999993" height="1080" preserveAspectRatio="xMidYMid meet" version="1.0"><defs><filter x="0%" y="0%" width="100%" height="100%" id="6c1c361399"><feColorMatrix values="0 0 0 0 1 0 0 0 0 1 0 0 0 0 1 0 0 0 1 0" color-interpolation-filters="sRGB"/></filter><mask id="526a60034f"><g filter="url(#6c1c361399)"><rect x="-81" width="972" fill="#000000" y="-80.999999" height="971.999992" fill-opacity="0.58"/></g></mask><clipPath id="68fa216219"><rect x="0" width="810" y="0" height="560"/></clipPath></defs><g mask="url(#526a60034f)"><g transform="matrix(1, 0, 0, 1, 0, 108)"><g clip-path="url(#68fa216219)"><path fill="#91260d" d="M 736.015625 92.148438 C 780.019531 103.820312 809.207031 147.8125 777.027344 171.15625 C 754.722656 187.46875 709.671875 235.652344 683.328125 267.824219 C 656.984375 299.996094 577.953125 339.796875 487.097656 320.496094 C 440.25 384.988281 396.242188 370.324219 323.050781 396.660156 C 249.859375 422.996094 267.371094 531.335938 144.335938 546 C 38.660156 558.570312 0.792969 197.492188 100.328125 86.164062 C 176.964844 0.570312 440.101562 1.167969 519.28125 74.492188 C 599.957031 73.292969 692.007812 80.328125 736.015625 92.148438 Z M 736.015625 92.148438 " fill-opacity="1" fill-rule="nonzero"/><path fill="#c94f32" d="M 508.652344 324.234375 C 501.46875 323.339844 494.285156 322.140625 487.097656 320.496094 C 507.902344 244.777344 517.035156 134.644531 519.28125 74.492188 C 522.273438 74.339844 525.117188 74.339844 528.109375 74.191406 C 527.960938 84.664062 527.0625 224.277344 508.652344 324.234375 Z M 84.164062 309.121094 C 84.164062 316.007812 88.355469 322.441406 95.089844 325.285156 C 104.070312 328.875 114.25 324.683594 117.992188 315.707031 C 128.617188 289.519531 135.800781 263.484375 144.785156 239.839844 C 147.027344 233.855469 149.273438 228.167969 151.667969 222.484375 L 153.464844 218.292969 L 155.410156 214.253906 C 156.007812 212.90625 156.609375 211.558594 157.355469 210.210938 C 158.105469 208.867188 158.703125 207.519531 159.300781 206.171875 C 164.691406 195.546875 170.527344 185.820312 177.265625 176.84375 C 184 167.863281 191.484375 159.785156 199.714844 152.453125 C 208.097656 145.121094 216.929688 138.238281 226.507812 131.652344 C 236.085938 125.066406 246.265625 118.785156 257.042969 112.199219 C 267.667969 105.617188 279.046875 99.480469 290.570312 91.699219 L 291.320312 91.25 C 295.660156 88.257812 298.652344 83.46875 299.101562 77.933594 C 300 67.90625 292.515625 59.226562 282.636719 58.328125 C 278.894531 58.03125 275.152344 57.878906 271.410156 57.878906 C 269.617188 57.878906 267.667969 57.878906 265.875 57.878906 C 264.078125 58.03125 262.132812 58.179688 260.335938 58.328125 C 258.539062 58.480469 256.59375 58.628906 254.796875 58.777344 C 253 58.929688 251.054688 59.078125 249.257812 59.378906 C 245.515625 59.976562 241.925781 60.574219 238.183594 61.324219 C 223.363281 64.464844 208.847656 69.253906 194.777344 76.285156 C 180.707031 83.167969 167.386719 92.296875 155.410156 103.070312 C 143.4375 113.84375 132.660156 126.265625 123.828125 139.582031 C 114.996094 152.902344 107.960938 167.265625 102.574219 181.78125 C 101.976562 183.578125 101.226562 185.371094 100.628906 187.167969 C 100.03125 188.964844 99.429688 190.757812 98.832031 192.554688 L 97.183594 197.941406 L 95.6875 203.328125 C 94.640625 206.921875 93.894531 210.660156 92.996094 214.253906 C 92.097656 217.84375 91.496094 221.433594 90.75 225.027344 C 88.054688 239.390625 86.558594 253.605469 85.511719 267.523438 C 84.613281 281.441406 84.164062 295.207031 84.164062 308.824219 Z M 559.992188 107.558594 C 558.347656 115.042969 563.136719 122.375 570.46875 123.871094 L 570.621094 123.871094 C 583.640625 126.714844 596.664062 126.714844 609.835938 126.566406 L 649.351562 126.414062 L 688.867188 126.414062 C 695.453125 126.414062 702.039062 126.414062 708.625 126.414062 L 718.503906 126.566406 L 723.292969 126.714844 C 724.9375 126.714844 726.285156 126.863281 727.933594 126.863281 L 728.679688 126.863281 C 732.125 127.011719 735.417969 124.621094 736.3125 121.175781 C 737.363281 117.136719 734.816406 112.949219 730.777344 111.898438 C 728.980469 111.449219 727.183594 111.003906 725.539062 110.554688 C 723.890625 110.253906 722.246094 109.804688 720.449219 109.503906 C 717.15625 108.90625 713.710938 108.160156 710.417969 107.558594 C 703.832031 106.363281 697.246094 105.316406 690.511719 104.417969 C 683.925781 103.371094 677.339844 102.472656 670.605469 101.726562 C 664.019531 100.828125 657.285156 100.078125 650.699219 99.480469 C 644.113281 98.730469 637.375 98.132812 630.789062 97.535156 C 624.203125 96.9375 617.46875 96.335938 610.882812 95.890625 C 597.5625 94.839844 584.089844 94.242188 570.621094 97.085938 C 565.53125 98.132812 561.191406 102.171875 559.992188 107.558594 Z M 559.992188 107.558594 " fill-opacity="1" fill-rule="nonzero"/></g></g></g></svg>