<svg xmlns="http://www.w3.org/2000/svg" xmlns:xlink="http://www.w3.org/1999/xlink" width="1080" zoomAndPan="magnify" viewBox="0 0 810 809.999993" height="1080" preserveAspectRatio="xMidYMid meet" version="1.0"><defs><filter x="0%" y="0%" width="100%" height="100%" id="b8b5340527"><feColorMatrix values="0 0 0 0 1 0 0 0 0 1 0 0 0 0 1 0 0 0 1 0" color-interpolation-filters="sRGB"/></filter><mask id="057deb4bdc"><g filter="url(#b8b5340527)"><rect x="-81" width="972" fill="#000000" y="-80.999999" height="971.999992" fill-opacity="0.58"/></g></mask><clipPath id="83a7ad43b4"><rect x="0" width="414" y="0" height="810"/></clipPath></defs><g mask="url(#057deb4bdc)"><g transform="matrix(1, 0, 0, 1, 198, 0.000000000000039746)"><g clip-path="url(#83a7ad43b4)"><path fill="#65a13d" d="M 299.695312 248.753906 C 304.839844 352.894531 298.265625 457.070312 305.269531 524.746094 C 314.703125 615.636719 363.289062 790.8125 363.289062 790.8125 C 356.25 808.417969 342.925781 809.742188 325.3125 799.992188 C 325.3125 799.992188 251.429688 526.03125 262.933594 436.855469 C 269.757812 383.820312 270.902344 329.859375 268.792969 294.753906 C 268.792969 294.753906 268.792969 294.679688 268.792969 294.503906 C 267.722656 279.394531 252.894531 269.109375 238.316406 273.394531 C 208.878906 282.039062 184.011719 314.503906 190.085938 351.144531 C 194.945312 386.714844 213.058594 440.640625 241.855469 517.28125 C 294.765625 658.207031 167.113281 757.777344 79.976562 722.601562 C 18.921875 697.921875 0.449219 642.351562 1.699219 588.386719 C 2.773438 541.710938 18.636719 496.246094 34.460938 473.070312 C 68.722656 422.820312 82.300781 374.109375 113.347656 303.929688 C 138.640625 246.789062 191.730469 217.253906 238.566406 228.789062 C 253.574219 232.503906 268.042969 221.003906 267.972656 205.574219 C 267.722656 157.863281 260.253906 93.9375 225.027344 68.152344 C 177.691406 33.472656 152.539062 36.9375 152.539062 36.9375 C 143.535156 26.367188 143.035156 14.007812 149.074219 0.257812 C 149.074219 0.257812 260.683594 7.152344 295.195312 145.183594 C 296.265625 149.46875 297.265625 153.753906 298.195312 158.042969 C 337.03125 74.6875 395.265625 62.113281 395.265625 62.113281 C 408.949219 71.792969 413.664062 82.222656 409.089844 93.4375 C 322.417969 102.683594 299.695312 248.753906 299.695312 248.753906 Z M 299.695312 248.753906 " fill-opacity="1" fill-rule="nonzero"/><path fill="#599632" d="M 190.085938 351.179688 C 194.945312 386.75 213.058594 440.679688 241.855469 517.320312 C 294.765625 658.246094 167.113281 757.8125 79.976562 722.636719 C 18.921875 697.957031 0.449219 642.386719 1.699219 588.425781 C 8.738281 632.136719 64.1875 684.671875 120.242188 684.671875 C 214.703125 684.671875 204.234375 624.886719 218.347656 585.78125 C 232.496094 546.675781 191.550781 507.570312 180.046875 482.285156 C 168.542969 457 175.4375 453.535156 185.800781 430.535156 C 196.160156 407.535156 186.941406 406.394531 174.296875 375.320312 C 161.648438 344.285156 169.6875 330.464844 181.191406 312.074219 C 192.695312 293.679688 199.589844 270.683594 233.246094 258.003906 C 265.46875 245.859375 268.578125 290.824219 268.792969 294.574219 C 267.722656 279.46875 252.894531 269.183594 238.316406 273.46875 C 208.878906 282.074219 184.011719 314.539062 190.085938 351.179688 Z M 190.085938 351.179688 " fill-opacity="1" fill-rule="nonzero"/><path fill="#82c655" d="M 112.917969 397.429688 C 118.457031 380.609375 122.742188 365.394531 125.421875 355.285156 C 127.101562 348.929688 122.3125 342.679688 115.738281 342.679688 L 115.667969 342.679688 C 111.132812 342.679688 107.164062 345.714844 105.988281 350.109375 C 103.664062 358.75 99.414062 374.035156 93.839844 391.179688 C 91.730469 397.714844 96.699219 404.429688 103.558594 404.285156 C 107.84375 404.214844 111.59375 401.464844 112.917969 397.429688 Z M 112.917969 397.429688 " fill-opacity="1" fill-rule="nonzero"/><path fill="#82c655" d="M 84.371094 427.820312 C 79.941406 427.105469 75.582031 429.535156 73.832031 433.679688 C 72.226562 437.464844 70.617188 441.140625 68.9375 444.640625 C 49.753906 485.285156 29.066406 505.210938 26.746094 541.246094 L 25.03125 568.101562 C 24.671875 573.425781 28.710938 578.066406 34.03125 578.425781 C 39.75 578.816406 47 578.851562 52.824219 577.28125 C 64.328125 574.210938 58.183594 507.320312 82.726562 460.640625 C 85.945312 454.535156 89.015625 448 91.945312 441.285156 C 94.484375 435.464844 90.800781 428.820312 84.550781 427.820312 C 84.515625 427.855469 84.441406 427.855469 84.371094 427.820312 Z M 84.371094 427.820312 " fill-opacity="1" fill-rule="nonzero"/><path fill="#599632" d="M 286.800781 145.21875 C 287.871094 149.507812 288.871094 153.792969 289.800781 158.078125 C 291.65625 154.113281 293.550781 150.292969 295.480469 146.613281 C 295.375 146.148438 295.265625 145.683594 295.160156 145.21875 C 260.648438 7.1875 149.035156 0.296875 149.035156 0.296875 C 148.894531 0.652344 148.75 1.007812 148.609375 1.367188 C 174.652344 5.9375 257.859375 29.4375 286.800781 145.21875 Z M 286.800781 145.21875 " fill-opacity="1" fill-rule="nonzero"/><path fill="#599632" d="M 240.070312 229.109375 C 239.570312 229.003906 239.03125 228.96875 238.53125 228.824219 C 230.421875 226.824219 222.132812 226.074219 213.84375 226.46875 C 219.347656 226.71875 224.777344 227.503906 230.171875 228.824219 C 233.566406 229.648438 236.890625 229.683594 240.070312 229.109375 Z M 240.070312 229.109375 " fill-opacity="1" fill-rule="nonzero"/><path fill="#599632" d="M 409.089844 93.472656 C 413.699219 82.257812 408.949219 71.828125 395.265625 62.152344 C 395.265625 62.152344 393.085938 62.613281 389.335938 63.972656 C 401.125 73.152344 405.019531 82.972656 400.695312 93.472656 C 314.023438 102.683594 291.335938 248.789062 291.335938 248.789062 C 296.480469 352.929688 289.90625 457.105469 296.910156 524.78125 C 306.339844 615.671875 354.929688 790.847656 354.929688 790.847656 C 351.429688 799.597656 346.355469 804.347656 339.996094 805.707031 C 350.355469 807.527344 358.359375 803.167969 363.289062 790.847656 C 363.289062 790.847656 314.703125 615.671875 305.269531 524.78125 C 298.230469 457.105469 304.839844 352.929688 299.695312 248.789062 C 299.695312 248.753906 322.417969 102.683594 409.089844 93.472656 Z M 409.089844 93.472656 " fill-opacity="1" fill-rule="nonzero"/></g></g></g></svg>