<svg xmlns="http://www.w3.org/2000/svg" xmlns:xlink="http://www.w3.org/1999/xlink" width="1080" zoomAndPan="magnify" viewBox="0 0 810 809.999993" height="1080" preserveAspectRatio="xMidYMid meet" version="1.0"><defs><filter x="0%" y="0%" width="100%" height="100%" id="61a6393877"><feColorMatrix values="0 0 0 0 1 0 0 0 0 1 0 0 0 0 1 0 0 0 1 0" color-interpolation-filters="sRGB"/></filter><mask id="7e1376a0b5"><g filter="url(#61a6393877)"><rect x="-81" width="972" fill="#000000" y="-80.999999" height="971.999992" fill-opacity="0.58"/></g></mask><clipPath id="1edf161ca2"><path d="M 0.367188 0 L 669 0 L 669 810 L 0.367188 810 Z M 0.367188 0 " clip-rule="nonzero"/></clipPath><clipPath id="3e8119996d"><path d="M 150 247 L 371 247 L 371 810 L 150 810 Z M 150 247 " clip-rule="nonzero"/></clipPath><clipPath id="1cd7ab3972"><rect x="0" width="671" y="0" height="810"/></clipPath></defs><g mask="url(#7e1376a0b5)"><g transform="matrix(1, 0, 0, 1, 70, 0.000000000000039746)"><g clip-path="url(#1cd7ab3972)"><g clip-path="url(#1edf161ca2)"><path fill="#e6aab8" d="M 668.925781 642.738281 L 668.925781 810.007812 L 0.8125 810.007812 L 0.8125 642.738281 C 0.804688 639.199219 0.925781 635.667969 1.183594 632.136719 C 1.441406 628.605469 1.828125 625.089844 2.351562 621.589844 C 2.875 618.089844 3.527344 614.613281 4.308594 611.164062 C 5.09375 607.714844 6.007812 604.296875 7.046875 600.914062 C 8.089844 597.53125 9.257812 594.195312 10.550781 590.898438 C 11.84375 587.605469 13.261719 584.363281 14.796875 581.179688 C 16.335938 577.992188 17.992188 574.867188 19.765625 571.804688 C 21.539062 568.742188 23.425781 565.75 25.421875 562.832031 C 27.421875 559.910156 29.527344 557.070312 31.742188 554.308594 C 33.957031 551.550781 36.269531 548.875 38.683594 546.289062 C 41.101562 543.703125 43.609375 541.210938 46.210938 538.816406 C 48.816406 536.417969 51.503906 534.125 54.28125 531.929688 C 57.054688 529.734375 59.910156 527.648438 62.84375 525.671875 C 65.777344 523.691406 68.78125 521.828125 71.855469 520.078125 C 74.929688 518.324219 78.066406 516.691406 81.261719 515.175781 C 84.460938 513.664062 87.710938 512.269531 91.011719 511 C 244.851562 452.253906 229.382812 474.066406 229.382812 387.878906 L 194.214844 387.878906 C 193.0625 387.878906 191.914062 387.824219 190.765625 387.710938 C 189.621094 387.597656 188.484375 387.429688 187.355469 387.203125 C 186.222656 386.980469 185.109375 386.699219 184.007812 386.367188 C 182.902344 386.03125 181.820312 385.644531 180.757812 385.203125 C 179.691406 384.761719 178.652344 384.269531 177.636719 383.726562 C 176.621094 383.183594 175.636719 382.589844 174.675781 381.949219 C 173.71875 381.3125 172.796875 380.625 171.90625 379.894531 C 171.015625 379.164062 170.164062 378.390625 169.347656 377.574219 C 168.535156 376.761719 167.761719 375.910156 167.03125 375.019531 C 166.300781 374.128906 165.617188 373.203125 164.976562 372.246094 C 164.335938 371.285156 163.746094 370.300781 163.203125 369.285156 C 162.660156 368.269531 162.167969 367.226562 161.726562 366.164062 C 161.285156 365.097656 160.898438 364.015625 160.5625 362.914062 C 160.230469 361.808594 159.949219 360.695312 159.726562 359.5625 C 159.5 358.433594 159.332031 357.296875 159.21875 356.148438 C 159.105469 355 159.050781 353.851562 159.050781 352.699219 L 159.050781 299.9375 C 159.050781 282.347656 106.304688 264.757812 123.886719 247.171875 C 205.992188 165.03125 81.515625 0.925781 334.867188 0.925781 C 457.941406 0.925781 510.6875 71.28125 510.6875 159.222656 C 510.6875 317.519531 440.359375 335.109375 440.359375 405.46875 C 440.359375 471.246094 431.746094 454.890625 578.730469 511 C 582.03125 512.269531 585.28125 513.660156 588.476562 515.175781 C 591.675781 516.691406 594.808594 518.324219 597.882812 520.078125 C 600.957031 521.828125 603.960938 523.691406 606.894531 525.671875 C 609.828125 527.648438 612.683594 529.734375 615.460938 531.929688 C 618.234375 534.121094 620.925781 536.417969 623.527344 538.816406 C 626.128906 541.210938 628.640625 543.703125 631.054688 546.289062 C 633.46875 548.875 635.785156 551.550781 637.996094 554.308594 C 640.210938 557.070312 642.316406 559.910156 644.316406 562.832031 C 646.3125 565.75 648.199219 568.742188 649.972656 571.804688 C 651.746094 574.867188 653.402344 577.992188 654.941406 581.179688 C 656.476562 584.367188 657.894531 587.605469 659.1875 590.898438 C 660.480469 594.195312 661.648438 597.53125 662.691406 600.914062 C 663.730469 604.296875 664.644531 607.714844 665.429688 611.164062 C 666.210938 614.617188 666.863281 618.089844 667.386719 621.589844 C 667.910156 625.089844 668.296875 628.605469 668.554688 632.136719 C 668.808594 635.667969 668.933594 639.199219 668.925781 642.738281 Z M 668.925781 642.738281 " fill-opacity="1" fill-rule="nonzero"/></g><path fill="#f4d7de" d="M 292.714844 774.828125 L 88.71875 774.828125 C 86.992188 774.828125 85.269531 774.742188 83.550781 774.574219 C 81.832031 774.402344 80.125 774.148438 78.429688 773.8125 C 76.734375 773.476562 75.0625 773.054688 73.410156 772.554688 C 71.757812 772.054688 70.132812 771.472656 68.535156 770.808594 C 66.941406 770.148438 65.382812 769.410156 63.859375 768.597656 C 62.335938 767.78125 60.855469 766.894531 59.417969 765.933594 C 57.984375 764.972656 56.597656 763.945312 55.261719 762.851562 C 53.925781 761.753906 52.648438 760.59375 51.425781 759.375 C 50.207031 758.152344 49.046875 756.871094 47.953125 755.535156 C 46.855469 754.199219 45.828125 752.816406 44.867188 751.378906 C 43.910156 749.941406 43.023438 748.460938 42.207031 746.9375 C 41.394531 745.414062 40.65625 743.851562 39.996094 742.257812 C 39.332031 740.660156 38.753906 739.035156 38.25 737.382812 C 37.75 735.730469 37.332031 734.054688 36.992188 732.359375 C 36.65625 730.664062 36.402344 728.957031 36.234375 727.238281 C 36.0625 725.519531 35.980469 723.792969 35.980469 722.066406 L 35.980469 660.324219 C 35.96875 656.789062 36.089844 653.257812 36.34375 649.730469 C 36.597656 646.203125 36.984375 642.6875 37.503906 639.191406 C 38.023438 635.695312 38.675781 632.21875 39.453125 628.769531 C 40.234375 625.320312 41.144531 621.90625 42.183594 618.527344 C 43.222656 615.148438 44.386719 611.8125 45.675781 608.519531 C 46.964844 605.226562 48.378906 601.984375 49.914062 598.800781 C 51.445312 595.613281 53.097656 592.492188 54.867188 589.429688 C 56.636719 586.367188 58.519531 583.378906 60.515625 580.457031 C 62.507812 577.539062 64.609375 574.699219 66.820312 571.9375 C 69.027344 569.175781 71.339844 566.503906 73.75 563.917969 C 76.160156 561.328125 78.664062 558.835938 81.261719 556.441406 C 83.859375 554.042969 86.542969 551.746094 89.316406 549.550781 C 92.085938 547.355469 94.9375 545.265625 97.867188 543.285156 C 100.792969 541.304688 103.792969 539.4375 106.863281 537.683594 C 109.933594 535.929688 113.0625 534.292969 116.257812 532.777344 C 119.449219 531.257812 122.695312 529.863281 125.992188 528.589844 L 242.039062 483.738281 C 243.65625 483.117188 245.21875 482.378906 246.722656 481.523438 C 248.230469 480.667969 249.667969 479.707031 251.03125 478.640625 C 252.398438 477.574219 253.675781 476.414062 254.867188 475.160156 C 256.0625 473.902344 257.15625 472.566406 258.152344 471.152344 C 259.148438 469.734375 260.035156 468.25 260.8125 466.703125 C 261.589844 465.152344 262.25 463.558594 262.789062 461.910156 C 263.332031 460.265625 263.75 458.589844 264.042969 456.882812 C 264.335938 455.175781 264.503906 453.453125 264.542969 451.722656 L 264.542969 370.296875 L 229.375 370.296875 C 228.222656 370.292969 227.074219 370.238281 225.925781 370.125 C 224.78125 370.011719 223.644531 369.84375 222.515625 369.617188 C 221.382812 369.394531 220.269531 369.113281 219.167969 368.777344 C 218.066406 368.445312 216.980469 368.054688 215.917969 367.613281 C 214.855469 367.175781 213.8125 366.683594 212.796875 366.140625 C 211.78125 365.59375 210.796875 365.003906 209.839844 364.363281 C 208.882812 363.722656 207.957031 363.039062 207.066406 362.308594 C 206.175781 361.574219 205.324219 360.804688 204.511719 359.988281 C 203.695312 359.171875 202.925781 358.320312 202.195312 357.429688 C 201.464844 356.539062 200.777344 355.617188 200.136719 354.65625 C 199.5 353.699219 198.90625 352.710938 198.363281 351.695312 C 197.820312 350.679688 197.332031 349.640625 196.890625 348.574219 C 196.449219 347.511719 196.0625 346.425781 195.726562 345.324219 C 195.394531 344.222656 195.113281 343.105469 194.890625 341.976562 C 194.664062 340.847656 194.496094 339.707031 194.382812 338.5625 C 194.269531 337.414062 194.214844 336.265625 194.214844 335.113281 L 194.214844 334.734375 C 220.722656 322.707031 247.519531 312.570312 264.542969 317.527344 C 317.289062 332.652344 297.773438 482.859375 290.214844 537.03125 C 281.355469 595.949219 277.851562 620.71875 292.714844 774.828125 Z M 292.714844 774.828125 " fill-opacity="1" fill-rule="nonzero"/><path fill="#f4d7de" d="M 668.925781 642.738281 L 668.925781 774.828125 L 363.097656 774.828125 C 336.496094 492.351562 370.027344 604.980469 370.027344 423.054688 C 370.027344 277.859375 306.710938 211.085938 185.242188 268.230469 C 171.019531 255.347656 146.171875 242.46875 159.046875 229.585938 C 222.167969 166.4375 163.265625 67.941406 238.167969 13.589844 C 253.84375 8.921875 269.792969 5.523438 286.011719 3.402344 C 302.230469 1.277344 318.519531 0.453125 334.867188 0.929688 C 457.945312 0.929688 510.691406 71.28125 510.691406 159.230469 C 510.691406 317.527344 440.363281 335.113281 440.363281 405.46875 C 440.363281 430.972656 436.136719 456.824219 462.867188 466.855469 L 578.90625 511.003906 C 582.203125 512.277344 585.449219 513.671875 588.640625 515.191406 C 591.835938 516.707031 594.964844 518.34375 598.035156 520.097656 C 601.105469 521.851562 604.105469 523.71875 607.035156 525.699219 C 609.960938 527.679688 612.8125 529.765625 615.585938 531.960938 C 618.355469 534.15625 621.039062 536.453125 623.640625 538.851562 C 626.238281 541.25 628.742188 543.742188 631.152344 546.328125 C 633.5625 548.914062 635.875 551.589844 638.082031 554.347656 C 640.292969 557.109375 642.394531 559.949219 644.386719 562.871094 C 646.382812 565.789062 648.265625 568.78125 650.035156 571.839844 C 651.804688 574.902344 653.457031 578.027344 654.992188 581.210938 C 656.523438 584.398438 657.9375 587.636719 659.226562 590.929688 C 660.515625 594.222656 661.683594 597.558594 662.71875 600.941406 C 663.757812 604.320312 664.667969 607.734375 665.449219 611.183594 C 666.230469 614.632812 666.882812 618.105469 667.402344 621.605469 C 667.917969 625.101562 668.308594 628.613281 668.5625 632.140625 C 668.816406 635.667969 668.9375 639.203125 668.925781 642.738281 Z M 668.925781 642.738281 " fill-opacity="1" fill-rule="nonzero"/><g clip-path="url(#3e8119996d)"><path fill="#e54a60" d="M 363.097656 774.828125 C 364.140625 785.933594 365.277344 797.660156 366.519531 810.007812 L 296.191406 810.007812 C 294.933594 797.578125 293.773438 785.851562 292.714844 774.828125 C 277.851562 620.71875 281.355469 595.949219 290.214844 537.03125 C 297.773438 482.859375 317.289062 332.652344 264.542969 317.527344 C 247.519531 312.570312 220.722656 322.707031 194.214844 334.734375 C 182.113281 340.222656 170.066406 346.097656 159.046875 351.117188 C 159.046875 295.363281 161.683594 296.242188 150.960938 286.746094 C 162.066406 279.976562 173.492188 273.804688 185.242188 268.230469 C 306.710938 211.085938 370.027344 277.859375 370.027344 423.054688 C 370.027344 604.980469 336.5 492.351562 363.097656 774.828125 Z M 363.097656 774.828125 " fill-opacity="1" fill-rule="nonzero"/></g><path fill="#ea6676" d="M 352.449219 616.53125 C 352.449219 649.949219 361.417969 774.828125 363.175781 774.828125 C 362.023438 774.835938 360.875 774.785156 359.726562 774.683594 C 358.578125 774.578125 357.441406 774.421875 356.308594 774.214844 C 355.175781 774.003906 354.054688 773.742188 352.945312 773.429688 C 351.839844 773.117188 350.746094 772.753906 349.671875 772.335938 C 348.597656 771.921875 347.546875 771.457031 346.515625 770.945312 C 345.484375 770.429688 344.476562 769.871094 343.5 769.265625 C 342.519531 768.65625 341.570312 768.007812 340.652344 767.3125 C 339.734375 766.617188 338.851562 765.878906 338 765.101562 C 337.152344 764.324219 336.339844 763.507812 335.566406 762.65625 C 334.792969 761.800781 334.058594 760.914062 333.367188 759.992188 C 332.675781 759.074219 332.03125 758.121094 331.425781 757.140625 C 330.824219 756.15625 330.269531 755.148438 329.757812 754.117188 C 329.25 753.082031 328.792969 752.027344 328.378906 750.949219 C 327.96875 749.875 327.609375 748.78125 327.300781 747.671875 C 326.992188 746.5625 326.734375 745.441406 326.53125 744.304688 C 326.328125 743.171875 326.175781 742.03125 326.078125 740.882812 C 303.746094 496.226562 334.871094 550.75 334.871094 405.46875 C 334.871094 344.257812 325.375 307.324219 299.707031 299.9375 C 293.457031 298.765625 287.160156 297.992188 280.8125 297.613281 C 274.464844 297.230469 268.117188 297.25 261.773438 297.664062 C 255.429688 298.078125 249.132812 298.886719 242.890625 300.09375 C 236.644531 301.296875 230.5 302.886719 224.457031 304.859375 C 223.582031 305.117188 222.699219 305.324219 221.800781 305.480469 C 220.902344 305.636719 219.996094 305.742188 219.085938 305.792969 C 218.179688 305.84375 217.269531 305.839844 216.359375 305.785156 C 215.449219 305.730469 214.546875 305.625 213.648438 305.464844 C 212.75 305.304688 211.867188 305.09375 210.992188 304.832031 C 210.121094 304.566406 209.265625 304.253906 208.429688 303.894531 C 207.59375 303.53125 206.78125 303.125 205.992188 302.667969 C 205.203125 302.210938 204.441406 301.710938 203.710938 301.167969 C 202.980469 300.621094 202.28125 300.039062 201.617188 299.414062 C 200.957031 298.789062 200.332031 298.125 199.742188 297.429688 C 199.15625 296.730469 198.613281 296 198.109375 295.238281 C 197.609375 294.480469 197.152344 293.691406 196.742188 292.878906 C 196.332031 292.0625 195.96875 291.230469 195.65625 290.375 C 195.34375 289.515625 195.078125 288.644531 194.867188 287.757812 C 194.652344 286.871094 194.492188 285.976562 194.382812 285.070312 C 194.277344 284.167969 194.21875 283.257812 194.214844 282.347656 C 194.023438 281.03125 193.699219 279.75 193.246094 278.5 C 192.789062 277.25 192.214844 276.058594 191.523438 274.921875 C 190.828125 273.789062 190.023438 272.738281 189.117188 271.765625 C 188.207031 270.796875 187.210938 269.925781 186.128906 269.15625 C 192.097656 265.773438 198.25 262.761719 204.585938 260.125 C 210.921875 257.488281 217.390625 255.242188 224 253.390625 C 230.605469 251.539062 237.300781 250.09375 244.082031 249.050781 C 250.867188 248.011719 257.6875 247.382812 264.542969 247.167969 C 330.652344 247.167969 370.035156 312.949219 370.035156 423.054688 C 370.03125 513.464844 352.449219 563.765625 352.449219 616.53125 Z M 352.449219 616.53125 " fill-opacity="1" fill-rule="nonzero"/></g></g></g></svg>