<svg xmlns="http://www.w3.org/2000/svg" xmlns:xlink="http://www.w3.org/1999/xlink" width="1080" zoomAndPan="magnify" viewBox="0 0 810 809.999993" height="1080" preserveAspectRatio="xMidYMid meet" version="1.0"><defs><filter x="0%" y="0%" width="100%" height="100%" id="0ccacc0a1a"><feColorMatrix values="0 0 0 0 1 0 0 0 0 1 0 0 0 0 1 0 0 0 1 0" color-interpolation-filters="sRGB"/></filter><mask id="5db8731857"><g filter="url(#0ccacc0a1a)"><rect x="-81" width="972" fill="#000000" y="-80.999999" height="971.999992" fill-opacity="0.58"/></g></mask><clipPath id="c22456f950"><rect x="0" width="610" y="0" height="810"/></clipPath></defs><g mask="url(#5db8731857)"><g transform="matrix(1, 0, 0, 1, 100, 0.000000000000039746)"><g clip-path="url(#c22456f950)"><path fill="#f27587" d="M 123.351562 490.347656 C 141.792969 448.738281 227.851562 414.535156 232.265625 365.519531 C 242.039062 256.609375 167.328125 240.6875 123.351562 165.980469 C 79.375 91.273438 87.886719 9.15625 133.125 4.269531 C 170.007812 0.328125 167.328125 40.519531 165.910156 64.949219 C 164.488281 89.382812 185.609375 157.15625 233.210938 149.902344 C 282.386719 142.496094 282.386719 42.097656 433.070312 66.683594 C 609.132812 95.210938 601.09375 324.695312 598.414062 366.621094 C 593.527344 440.070312 535.050781 667.660156 267.886719 672.703125 C 180.882812 674.28125 147.941406 631.09375 114.839844 633.460938 C 81.738281 635.980469 99.707031 700.445312 103.808594 759.550781 C 106.328125 795.011719 24.210938 809.671875 18.0625 759.550781 C 11.914062 709.429688 0.882812 512.253906 123.351562 490.347656 Z M 123.351562 490.347656 " fill-opacity="1" fill-rule="nonzero"/><path fill="#f9b2c2" d="M 297.203125 634.878906 C 286.171875 634.878906 277.1875 626.210938 276.714844 615.175781 C 276.242188 603.828125 285.066406 594.214844 296.417969 593.742188 C 387.675781 589.800781 437.644531 541.097656 454.980469 520.449219 C 462.230469 511.78125 475.3125 510.523438 483.984375 517.773438 C 492.652344 525.023438 493.914062 538.105469 486.664062 546.773438 C 442.6875 599.414062 374.121094 631.566406 298.308594 634.878906 C 297.835938 634.878906 297.519531 634.878906 297.203125 634.878906 Z M 297.203125 634.878906 " fill-opacity="1" fill-rule="nonzero"/></g></g></g></svg>