<svg xmlns="http://www.w3.org/2000/svg" xmlns:xlink="http://www.w3.org/1999/xlink" width="1080" zoomAndPan="magnify" viewBox="0 0 810 809.999993" height="1080" preserveAspectRatio="xMidYMid meet" version="1.0"><defs><filter x="0%" y="0%" width="100%" height="100%" id="2dd25cd54c"><feColorMatrix values="0 0 0 0 1 0 0 0 0 1 0 0 0 0 1 0 0 0 1 0" color-interpolation-filters="sRGB"/></filter><mask id="6ee88a21ae"><g filter="url(#2dd25cd54c)"><rect x="-81" width="972" fill="#000000" y="-80.999999" height="971.999992" fill-opacity="0.58"/></g></mask><clipPath id="580d622804"><path d="M 579 184 L 731.878906 184 L 731.878906 712 L 579 712 Z M 579 184 " clip-rule="nonzero"/></clipPath><clipPath id="b0bc1fee99"><path d="M 0.359375 195 L 253 195 L 253 552 L 0.359375 552 Z M 0.359375 195 " clip-rule="nonzero"/></clipPath><clipPath id="6f8595c93c"><rect x="0" width="732" y="0" height="802"/></clipPath></defs><g mask="url(#6ee88a21ae)"><g transform="matrix(1, 0, 0, 1, 39, 8)"><g clip-path="url(#6f8595c93c)"><g clip-path="url(#580d622804)"><path fill="#20151d" d="M 713.722656 711.050781 C 695.683594 710.890625 696.160156 710.730469 694.40625 692.691406 C 688.179688 628.511719 680.355469 564.488281 658.644531 503.339844 C 648.902344 476.039062 634.695312 450.65625 622.242188 424.472656 C 607.074219 392.542969 591.589844 360.613281 583.605469 325.808594 C 578.179688 302.019531 577.058594 278.230469 583.605469 254.441406 C 589.355469 233.527344 593.183594 212.132812 596.21875 190.582031 C 596.855469 185.792969 598.453125 184.515625 602.925781 184.671875 C 610.746094 184.992188 618.570312 184.992188 626.234375 184.671875 C 631.660156 184.355469 633.257812 185.792969 632.460938 191.539062 C 629.425781 212.613281 626.871094 233.847656 620.644531 253.964844 C 611.226562 284.296875 614.898438 313.195312 625.277344 342.09375 C 639.484375 381.84375 659.28125 419.042969 677.640625 456.882812 C 698.714844 500.148438 709.574219 546.289062 717.875 593.226562 C 724.101562 629.148438 727.933594 665.550781 731.285156 701.789062 C 732.082031 711.050781 732.402344 711.050781 722.824219 711.050781 C 719.949219 711.050781 716.917969 711.050781 713.722656 711.050781 Z M 713.722656 711.050781 " fill-opacity="1" fill-rule="nonzero"/></g><path fill="#20151d" d="M 133.222656 397.171875 C 119.175781 426.546875 104.804688 455.765625 91.234375 485.300781 C 74.472656 522.339844 66.488281 561.773438 59.625 601.6875 C 53.714844 636.171875 49.726562 670.816406 47.171875 705.78125 C 46.851562 709.773438 45.253906 711.210938 41.421875 711.050781 C 33.121094 710.890625 24.820312 710.730469 16.519531 711.050781 C 11.566406 711.210938 10.449219 709.613281 10.929688 704.824219 C 13.003906 678.480469 15.71875 652.296875 19.390625 626.113281 C 24.980469 586.679688 32.164062 547.566406 43.816406 509.410156 C 53.238281 478.277344 68.566406 449.859375 82.292969 420.640625 C 91.234375 401.484375 100.335938 382.324219 109.4375 363.167969 C 110.234375 362.847656 111.03125 362.847656 111.671875 363.484375 C 119.972656 373.066406 126.996094 383.441406 133.542969 394.296875 C 134.023438 395.097656 133.703125 396.214844 133.222656 397.171875 Z M 133.222656 397.171875 " fill-opacity="1" fill-rule="nonzero"/><g clip-path="url(#b0bc1fee99)"><path fill="#20151d" d="M 133.222656 397.171875 C 126.199219 385.199219 118.214844 373.863281 109.59375 363.007812 C 94.269531 338.417969 76.707031 315.269531 60.421875 291.320312 C 41.902344 264.339844 23.222656 237.679688 4.542969 210.855469 C 3.90625 210.058594 3.425781 209.101562 2.789062 208.300781 C -0.0859375 204.152344 -0.40625 200 4.066406 196.808594 C 8.855469 193.453125 12.527344 196.007812 15.242188 200 C 25.140625 214.050781 34.71875 228.097656 44.617188 242.148438 C 67.128906 274.398438 89.640625 306.808594 112.148438 339.058594 C 113.425781 340.972656 115.023438 342.570312 116.621094 344.328125 C 120.769531 345.285156 121.730469 349.277344 123.484375 351.992188 C 129.234375 361.089844 137.214844 368.59375 140.886719 378.972656 C 148.550781 392.863281 158.449219 405.15625 167.390625 418.085938 C 181.757812 439.320312 196.765625 460.074219 211.292969 481.308594 C 214.328125 485.78125 216.402344 486.578125 220.875 483.066406 C 226.941406 478.277344 233.644531 474.285156 239.871094 469.65625 C 242.90625 467.417969 244.34375 467.898438 244.980469 471.570312 C 247.375 484.023438 249.929688 496.476562 252.484375 508.769531 C 253.285156 512.601562 250.570312 513.71875 248.335938 515.316406 C 236.679688 523.617188 236.679688 523.617188 244.980469 535.433594 C 246.738281 537.988281 248.492188 540.539062 250.25 543.09375 C 252.007812 545.808594 252.484375 548.683594 249.453125 550.441406 C 246.738281 552.035156 244.503906 550.757812 242.746094 548.363281 C 239.074219 543.09375 235.082031 537.828125 231.730469 532.398438 C 229.65625 529.207031 227.417969 528.726562 225.023438 531.441406 C 215.765625 541.660156 206.984375 539.421875 197.246094 531.761719 C 190.0625 526.011719 181.597656 521.703125 172.816406 516.113281 C 181.597656 510.046875 189.742188 504.300781 197.882812 498.550781 C 200.597656 496.636719 202.832031 495.359375 200.117188 491.367188 C 178.40625 460.394531 156.851562 429.421875 135.140625 398.449219 C 134.5 398.128906 133.703125 397.652344 133.222656 397.171875 Z M 133.222656 397.171875 " fill-opacity="1" fill-rule="nonzero"/></g><path fill="#20151d" d="M 365.519531 319.742188 C 364.242188 319.582031 363.761719 319.421875 363.285156 319.261719 C 348.117188 316.226562 348.117188 316.226562 344.605469 331.234375 C 343.964844 333.789062 343.488281 336.34375 342.847656 338.738281 C 342.050781 341.453125 340.613281 343.527344 337.421875 342.890625 C 333.589844 342.25 333.269531 339.378906 333.910156 336.34375 C 335.183594 330.597656 336.621094 324.691406 338.21875 319.101562 C 339.335938 314.949219 338.859375 312.714844 333.910156 311.597656 C 318.742188 307.925781 318.902344 307.605469 316.664062 292.597656 C 315.546875 284.457031 314.429688 276.15625 312.675781 268.011719 C 311.558594 262.902344 313.472656 262.746094 317.464844 263.863281 C 325.285156 265.9375 333.269531 267.054688 340.773438 269.769531 C 347.160156 272.003906 348.117188 268.96875 349.234375 264.179688 C 355.941406 236.5625 362.804688 208.941406 369.511719 181.320312 C 383.558594 124.003906 397.609375 66.851562 411.660156 9.535156 C 412.9375 4.425781 423.792969 0.433594 427.625 3.785156 C 429.699219 5.542969 427.625 7.617188 427.144531 9.535156 C 415.011719 59.347656 402.878906 109 390.585938 158.808594 C 381.484375 195.53125 372.542969 232.089844 363.285156 268.8125 C 362.007812 273.921875 363.445312 275.996094 368.394531 276.953125 C 375.417969 278.390625 382.441406 280.464844 389.46875 281.902344 C 394.097656 282.859375 395.375 284.136719 392.023438 288.289062 C 384.835938 297.390625 377.8125 306.808594 370.949219 316.226562 C 369.351562 318.304688 368.074219 320.699219 365.519531 319.742188 Z M 365.519531 319.742188 " fill-opacity="1" fill-rule="nonzero"/><path fill="#20151d" d="M 140.566406 378.972656 C 131.628906 367.957031 123.644531 356.300781 116.300781 344.328125 C 120.769531 331.394531 124.125 318.144531 126.519531 304.574219 C 130.351562 283.820312 123.804688 264.5 119.335938 244.863281 C 115.34375 226.664062 112.46875 208.300781 109.4375 189.941406 C 108.796875 185.792969 109.914062 184.355469 114.226562 184.515625 C 123.007812 184.832031 131.789062 184.671875 140.726562 184.515625 C 144.082031 184.515625 145.359375 185.632812 145.675781 188.824219 C 149.1875 219.160156 159.246094 248.375 162.917969 278.710938 C 165.953125 302.976562 159.566406 326.605469 152.0625 349.59375 C 149.03125 359.492188 145.835938 369.710938 140.566406 378.972656 Z M 140.566406 378.972656 " fill-opacity="1" fill-rule="nonzero"/><path fill="#20151d" d="M 563.648438 611.425781 C 554.070312 614.460938 545.449219 617.8125 536.507812 620.046875 C 529.960938 621.644531 529.644531 624.679688 531.398438 630.425781 C 548.800781 683.75 566.042969 737.234375 583.285156 790.558594 C 583.925781 792.472656 584.5625 794.550781 585.203125 796.464844 C 586.160156 799.179688 585.203125 799.976562 582.488281 800.296875 C 572.269531 801.574219 570.515625 800.617188 567.480469 791.195312 C 550.558594 738.511719 533.476562 685.824219 516.710938 633.140625 C 515.273438 628.351562 513.679688 626.914062 508.730469 628.828125 C 501.542969 631.703125 493.882812 633.617188 486.695312 636.171875 C 482.066406 637.769531 481.429688 636.011719 481.90625 631.863281 C 483.023438 622.125 484.300781 612.226562 484.621094 602.488281 C 484.78125 594.664062 487.335938 589.714844 495.636719 588.757812 C 503.621094 587.796875 506.015625 583.964844 502.183594 576.460938 C 500.109375 572.3125 499.148438 567.683594 497.710938 563.210938 C 496.753906 560.179688 496.914062 557.304688 500.425781 556.1875 C 503.78125 555.070312 505.695312 556.984375 506.652344 560.179688 C 508.570312 566.085938 510.804688 571.832031 512.402344 577.898438 C 513.519531 581.890625 515.113281 583.488281 518.945312 581.253906 C 530.921875 574.226562 538.582031 579.496094 545.609375 589.554688 C 550.558594 597.21875 557.105469 603.921875 563.648438 611.425781 Z M 563.648438 611.425781 " fill-opacity="1" fill-rule="nonzero"/><path fill="#20151d" d="M 251.847656 582.6875 C 235.722656 582.847656 226.621094 578.21875 219.277344 569.757812 C 216.722656 566.882812 217.042969 565.445312 220.234375 563.371094 C 225.34375 559.859375 229.015625 556.027344 235.242188 563.210938 C 240.832031 569.757812 252.644531 568.480469 259.511719 563.050781 C 266.695312 557.464844 269.089844 548.042969 265.734375 539.261719 C 264.9375 537.347656 262.0625 535.273438 264.460938 533.039062 C 267.492188 530.324219 271.003906 527.929688 274.675781 526.171875 C 276.59375 525.214844 277.230469 528.089844 278.03125 529.523438 C 284.414062 541.019531 284.414062 552.835938 278.1875 564.328125 C 271.484375 576.460938 260.945312 582.53125 251.847656 582.6875 Z M 251.847656 582.6875 " fill-opacity="1" fill-rule="nonzero"/><path fill="#20151d" d="M 468.015625 572.789062 C 462.269531 552.195312 470.730469 533.996094 488.773438 526.96875 C 505.855469 520.265625 525.332031 527.769531 533.316406 544.53125 C 534.273438 546.449219 538.902344 550.4375 533.316406 551.714844 C 529.164062 552.675781 524.375 559.859375 519.746094 551.714844 C 514.316406 542.136719 505.054688 538.144531 495.636719 541.019531 C 486.21875 543.734375 480.46875 552.355469 481.585938 563.210938 C 481.90625 567.363281 481.269531 569.4375 477.117188 570.238281 C 474.242188 570.714844 471.210938 571.832031 468.015625 572.789062 Z M 468.015625 572.789062 " fill-opacity="1" fill-rule="nonzero"/><path fill="#20151d" d="M 338.539062 374.5 C 316.1875 374.660156 299.582031 355.820312 302.457031 333.628906 C 302.933594 329.640625 303.894531 328.363281 308.363281 329.640625 C 314.269531 331.234375 319.058594 331.875 318.261719 340.335938 C 317.304688 348.957031 324.488281 356.300781 333.269531 358.375 C 342.6875 360.613281 351.46875 356.460938 356.101562 347.839844 C 358.496094 343.367188 368.394531 341.933594 371.90625 345.605469 C 373.503906 347.359375 372.226562 348.957031 371.585938 350.554688 C 366.957031 364.601562 353.226562 374.5 338.539062 374.5 Z M 338.539062 374.5 " fill-opacity="1" fill-rule="nonzero"/><path fill="#20151d" d="M 371.109375 481.308594 C 361.210938 481.308594 353.546875 473.488281 353.546875 463.429688 C 353.546875 453.53125 361.367188 445.546875 371.109375 445.546875 C 381.007812 445.546875 389.628906 454.167969 389.308594 463.90625 C 389.148438 473.488281 380.847656 481.308594 371.109375 481.308594 Z M 371.109375 481.308594 " fill-opacity="1" fill-rule="nonzero"/></g></g></g></svg>